# xmcd
# 
# Track frame offsets:
#     150
#     14649
#     31188
#     48429
#     67122
#     89481
#     107749
#     124683
#     136814
#     148461
#     166476
#     183537
# 
# Disc length: 2821
# 
# Revision: 3
# Processed by: cddbd v1.5.2PL0 Copyright (c) Steve Scherf et al.
# Submitted via: fre:ac v1.0.31
# 
DISCID=b20b030c
DTITLE=The Steeldrivers - Reckless
DYEAR=2010
DGENRE=Country
TTITLE0=The Reckless Side of Me
TTITLE1=Good Corn Liquor
TTITLE2=Where Rainbows Never Die
TTITLE3=The Price
TTITLE4=Can You Run
TTITLE5=Peacemaker
TTITLE6=You Put the Hurt on Me
TTITLE7=Midnight on the Mountain
TTITLE8=Guitars, Whiskey, Guns and Knives
TTITLE9=Angel of the Night
TTITLE10=Higher Than the Wall
TTITLE11=Ghosts of Mississippi
EXTD=
EXTT0=
EXTT1=
EXTT2=
EXTT3=
EXTT4=
EXTT5=
EXTT6=
EXTT7=
EXTT8=
EXTT9=
EXTT10=
EXTT11=
PLAYORDER=
